<svg xmlns="http://www.w3.org/2000/svg" viewBox="0 0 420 420" role="img" aria-labelledby="title desc">
  <title id="title">Victor Parra avatar placeholder</title>
  <desc id="desc">Abstract monogram placeholder for a future profile photo.</desc>
  <defs>
    <linearGradient id="bg" x1="0" x2="1" y1="0" y2="1">
      <stop offset="0" stop-color="#101820"/>
      <stop offset="0.48" stop-color="#27323d"/>
      <stop offset="1" stop-color="#c59b62"/>
    </linearGradient>
    <radialGradient id="glow" cx="32%" cy="28%" r="70%">
      <stop offset="0" stop-color="#f8f1e5" stop-opacity="0.35"/>
      <stop offset="1" stop-color="#f8f1e5" stop-opacity="0"/>
    </radialGradient>
    <filter id="grain">
      <feTurbulence type="fractalNoise" baseFrequency="0.85" numOctaves="3" stitchTiles="stitch"/>
      <feColorMatrix type="saturate" values="0"/>
      <feComponentTransfer>
        <feFuncA type="table" tableValues="0 0.12"/>
      </feComponentTransfer>
    </filter>
  </defs>
  <rect width="420" height="420" rx="52" fill="url(#bg)"/>
  <rect width="420" height="420" rx="52" fill="url(#glow)"/>
  <path d="M80 300 178 92h42l98 208h-54l-18-43h-99l-18 43H80Zm84-88h65l-32-78-33 78Z" fill="#f8f1e5"/>
  <path d="M235 95h55c37 0 66 24 66 61 0 38-29 63-66 63h-9v81h-46V95Zm50 84c16 0 25-9 25-23 0-15-9-23-25-23h-4v46h4Z" fill="#f8f1e5" opacity="0.82"/>
  <path d="M70 340h280" stroke="#f8f1e5" stroke-opacity="0.45" stroke-width="2"/>
  <rect width="420" height="420" rx="52" filter="url(#grain)" opacity="0.45"/>
</svg>
